<?xml version="1.0" encoding="UTF-8"?>
<svg width="60px" height="60px" viewBox="0 0 60 60" version="1.1" xmlns="http://www.w3.org/2000/svg" xmlns:xlink="http://www.w3.org/1999/xlink">
    <!-- Generator: Sketch 54.1 (76490) - https://sketchapp.com -->
    <title>sad</title>
    <desc>Created with Sketch.</desc>
    <g id="Page-1" stroke="none" stroke-width="1" fill="none" fill-rule="evenodd">
        <g id="Day-1160-Feedback-UI-Design" transform="translate(-898.000000, -341.000000)" fill-rule="nonzero">
            <g id="Rectangle" transform="translate(838.000000, 228.000000)">
                <g id="sad" transform="translate(60.000000, 113.000000)">
                    <circle id="Oval" fill="#FFE17D" cx="30" cy="30" r="30"></circle>
                    <path d="M19.8386719,30 L19.8386719,30 C18.5025,30 17.4193359,28.9168359 17.4193359,27.5806641 L17.4193359,25.6451953 C17.4193359,24.3090234 18.5025,23.2258594 19.8386719,23.2258594 L19.8386719,23.2258594 C21.1748438,23.2258594 22.2580078,24.3090234 22.2580078,25.6451953 L22.2580078,27.5806641 C22.2580078,28.9168359 21.1748438,30 19.8386719,30 Z" id="Path" fill="#7D5046"></path>
                    <path d="M19.8386719,23.2258594 C19.6729687,23.2258594 19.51125,23.2428516 19.3548047,23.2746094 L19.3548047,26.6129297 C19.3548047,27.4146094 20.0047266,28.0645312 20.8064062,28.0645312 C21.6080859,28.0645312 22.2580078,27.4146094 22.2580078,26.6129297 L22.2580078,25.6451953 C22.2580078,24.3089062 21.1749609,23.2258594 19.8386719,23.2258594 Z" id="Path" fill="#9C6846"></path>
                    <path d="M40.1613281,30 L40.1613281,30 C38.8251562,30 37.7419922,28.9168359 37.7419922,27.5806641 L37.7419922,25.6451953 C37.7419922,24.3090234 38.8251562,23.2258594 40.1613281,23.2258594 L40.1613281,23.2258594 C41.4975,23.2258594 42.5806641,24.3090234 42.5806641,25.6451953 L42.5806641,27.5806641 C42.5806641,28.9168359 41.4975,30 40.1613281,30 Z" id="Path" fill="#7D5046"></path>
                    <path d="M40.1613281,23.2258594 C39.995625,23.2258594 39.8339062,23.2428516 39.6774609,23.2746094 L39.6774609,26.6129297 C39.6774609,27.4146094 40.3273828,28.0645312 41.1290625,28.0645312 C41.9307422,28.0645312 42.5806641,27.4146094 42.5806641,26.6129297 L42.5806641,25.6451953 C42.5806641,24.3089062 41.4975,23.2258594 40.1613281,23.2258594 Z" id="Path" fill="#9C6846"></path>
                    <path d="M20.3187891,44.7580078 C20.0258203,44.7580078 19.7319141,44.6521875 19.4994141,44.4385547 C19.0079297,43.9858594 18.9758203,43.2208594 19.4285156,42.7289062 C21.8838281,40.0605469 25.8350391,38.4676172 29.9961328,38.4676172 C34.1591016,38.4676172 38.1094922,40.0610156 40.56375,42.729375 C41.0164453,43.2208594 40.9843359,43.9863281 40.4928516,44.4385547 C40.0024219,44.89125 39.2358984,44.8605469 38.7832031,44.3671875 C36.7787109,42.1878516 33.4937109,40.8869531 29.9960156,40.8869531 C26.4992578,40.8869531 23.2142578,42.1878516 21.2088281,44.3676563 C20.9709375,44.6267578 20.6448047,44.7580078 20.3187891,44.7580078 Z" id="Path" fill="#AA7346"></path>
                    <path d="M34.3548047,55.6451953 C17.78625,55.6451953 4.35480469,42.21375 4.35480469,25.6451953 C4.35480469,18.4701562 6.87679688,11.8860937 11.0785547,6.72375 C4.31988281,12.2245312 0,20.6064844 0,30 C0,46.5685547 13.4314453,60 30,60 C39.3936328,60 47.7755859,55.68 53.2764844,48.9213281 C48.1140234,53.1230859 41.5299609,55.6451953 34.3548047,55.6451953 Z" id="Path" fill="#FFD164"></path>
                </g>
            </g>
        </g>
    </g>
</svg>