<svg width="32" height="32" viewBox="0 0 32 32" fill="none" xmlns="http://www.w3.org/2000/svg">
<g clip-path="url(#clip0)">
<path d="M13.3333 6.66667C13.3333 5.95942 13.6143 5.28115 14.1144 4.78105C14.6145 4.28095 15.2927 4 16 4C16.7072 4 17.3855 4.28095 17.8856 4.78105C18.3857 5.28115 18.6666 5.95942 18.6666 6.66667C20.1979 7.3907 21.5032 8.51777 22.4427 9.92707C23.3822 11.3364 23.9206 12.9748 24 14.6667V18.6667C24.1003 19.4956 24.3939 20.2894 24.8571 20.9842C25.3202 21.6789 25.9401 22.2552 26.6666 22.6667H5.33331C6.0599 22.2552 6.67973 21.6789 7.1429 20.9842C7.60607 20.2894 7.89964 19.4956 7.99998 18.6667V14.6667C8.07939 12.9748 8.61771 11.3364 9.55725 9.92707C10.4968 8.51777 11.8021 7.3907 13.3333 6.66667" stroke="#202142" stroke-width="2" stroke-linecap="round" stroke-linejoin="round"/>
<path d="M12 22.6667V24C12 25.0609 12.4214 26.0783 13.1716 26.8284C13.9217 27.5786 14.9391 28 16 28C17.0609 28 18.0783 27.5786 18.8284 26.8284C19.5786 26.0783 20 25.0609 20 24V22.6667" stroke="#202142" stroke-width="2" stroke-linecap="round" stroke-linejoin="round"/>
</g>
<defs>
<clipPath id="clip0">
<rect width="32" height="32" fill="white"/>
</clipPath>
</defs>
</svg>
