<svg width="40" height="40" viewBox="0 0 40 40" fill="none" xmlns="http://www.w3.org/2000/svg">
<path d="M2.21 7.73208C7.45202 -1.34738 21.3085 -1.78874 30.388 3.45329C39.4674 8.69531 42.5783 20.3052 37.3362 29.3846C32.0942 38.4641 19.8911 42.7834 10.8117 37.5414C1.73224 32.2994 -3.03203 16.8115 2.21 7.73208ZM22.0443 13.3232C21.6716 13.3232 21.376 13.4356 21.1575 13.6606C20.9702 13.8534 20.8631 14.1005 20.8364 14.4019L20.8297 14.5571V21.652C20.8297 22.8088 20.5534 23.6892 20.0007 24.2933C19.448 24.8974 18.6447 25.1994 17.5907 25.1994C16.5239 25.1994 15.7142 24.9006 15.1615 24.3029C14.6513 23.7512 14.3766 22.9559 14.3374 21.9168L14.3325 21.652V14.5571C14.3325 14.1843 14.2232 13.8855 14.0047 13.6606C13.7862 13.4356 13.4906 13.3232 13.1178 13.3232C12.7451 13.3232 12.4495 13.4356 12.231 13.6606C12.0437 13.8534 11.9367 14.1005 11.9099 14.4019L11.9032 14.5571V21.517C11.9032 23.3679 12.3852 24.7753 13.3492 25.7393C14.3132 26.7033 15.727 27.1853 17.5907 27.1853C19.4416 27.1853 20.849 26.7 21.813 25.7296C22.7202 24.8163 23.2006 23.5187 23.2539 21.8369L23.2589 21.517V14.5571C23.2589 14.1843 23.1497 13.8855 22.9312 13.6606C22.7127 13.4356 22.4171 13.3232 22.0443 13.3232ZM27.3462 13.3232C26.9735 13.3232 26.6747 13.4356 26.4497 13.6606C26.2569 13.8534 26.1468 14.1005 26.1192 14.4019L26.1123 14.5571V25.8742C26.1123 26.247 26.2248 26.549 26.4497 26.7804C26.6747 27.0117 26.9735 27.1274 27.3462 27.1274C27.7318 27.1274 28.0371 27.0117 28.262 26.7804C28.4548 26.5821 28.565 26.3318 28.5925 26.0297L28.5994 25.8742V14.5571C28.5994 14.1843 28.4869 13.8855 28.262 13.6606C28.0371 13.4356 27.7318 13.3232 27.3462 13.3232Z" fill="#242E4C"/>
</svg>
