<svg width="44" height="44" viewBox="0 0 44 44" fill="none" xmlns="http://www.w3.org/2000/svg">
<path d="M16.9257 36.1408C17.6478 35.9057 18.0425 35.1297 17.8074 34.4076C17.5724 33.6855 16.7964 33.2908 16.0743 33.5259L16.9257 36.1408ZM5.88798 28.0142C5.15944 27.7999 4.39515 28.2168 4.18087 28.9453C3.9666 29.6739 4.38349 30.4382 5.11202 30.6524L5.88798 28.0142ZM26.125 38.5C26.125 39.2594 26.7406 39.875 27.5 39.875C28.2594 39.875 28.875 39.2594 28.875 38.5H26.125ZM26.5833 28.4166L26.4369 27.0495C25.9103 27.1059 25.463 27.4596 25.2867 27.959C25.1105 28.4583 25.2366 29.0145 25.6111 29.3889L26.5833 28.4166ZM36.6667 17.4166L38.0417 17.4166L38.0417 17.4152L36.6667 17.4166ZM34.2833 11.55L32.9964 11.0659C32.8089 11.5642 32.926 12.1259 33.2969 12.5079L34.2833 11.55ZM34.1 5.6833L35.3542 5.11979C35.1858 4.74483 34.8584 4.46491 34.4618 4.35675L34.1 5.6833ZM27.6833 8.06664L27.3368 9.39725C27.7162 9.49607 28.1198 9.4282 28.446 9.21071L27.6833 8.06664ZM16.3167 8.06664L15.554 9.21071C15.8802 9.4282 16.2838 9.49607 16.6632 9.39725L16.3167 8.06664ZM9.9 5.6833L9.53821 4.35675C9.14163 4.46491 8.81424 4.74483 8.64578 5.11979L9.9 5.6833ZM9.71667 11.55L10.7031 12.5079C11.074 12.1259 11.1911 11.5642 11.0036 11.0659L9.71667 11.55ZM7.33333 17.4166L5.95833 17.4152V17.4166H7.33333ZM17.4167 28.4166L18.3889 29.3889C18.7634 29.0145 18.8895 28.4583 18.7133 27.959C18.537 27.4596 18.0897 27.1059 17.5631 27.0495L17.4167 28.4166ZM16.5 32.0833H17.875C17.875 32.0263 17.8715 31.9693 17.8644 31.9128L16.5 32.0833ZM15.125 38.5C15.125 39.2594 15.7406 39.875 16.5 39.875C17.2594 39.875 17.875 39.2594 17.875 38.5H15.125ZM16.0743 33.5259C14.2786 34.1105 13.0874 34.0917 12.2641 33.8615C11.4498 33.6337 10.8289 33.1529 10.2501 32.4873C9.59659 31.7358 9.21197 31.0441 8.53048 30.1227C7.94633 29.3329 7.13164 28.38 5.88798 28.0142L5.11202 30.6524C5.42669 30.745 5.78075 31.0295 6.31952 31.758C6.76095 32.3548 7.45341 33.4621 8.17492 34.2918C8.97112 35.2074 10.0231 36.0902 11.5234 36.5098C13.0147 36.9269 14.7797 36.8394 16.9257 36.1408L16.0743 33.5259ZM28.875 38.5V32.0833H26.125V38.5H28.875ZM28.875 32.0833C28.875 31.3184 28.9271 30.4486 28.8105 29.7489C28.6643 28.8722 28.2743 28.163 27.5556 27.4444L25.6111 29.3889C25.9924 29.7703 26.0607 29.9777 26.0979 30.201C26.1646 30.6014 26.125 31.0149 26.125 32.0833H28.875ZM26.7298 29.7838C29.388 29.499 32.2511 28.8164 34.45 26.9124C36.708 24.9573 38.0417 21.9175 38.0417 17.4166H35.2917C35.2917 21.3491 34.1504 23.5343 32.65 24.8334C31.0906 26.1836 28.912 26.7843 26.4369 27.0495L26.7298 29.7838ZM38.0417 17.4152C38.0391 14.8671 37.0449 12.42 35.2697 10.592L33.2969 12.5079C34.5744 13.8234 35.2898 15.5844 35.2917 17.418L38.0417 17.4152ZM35.5703 12.0341C36.414 9.79118 36.3363 7.30563 35.3542 5.11979L32.8458 6.24682C33.5303 7.77028 33.5844 9.50264 32.9964 11.0659L35.5703 12.0341ZM34.1 5.6833C34.4618 4.35675 34.4605 4.35642 34.4593 4.35608C34.4589 4.35596 34.4576 4.35562 34.4567 4.35539C34.455 4.35493 34.4533 4.35446 34.4515 4.35399C34.448 4.35305 34.4443 4.35209 34.4404 4.35111C34.4328 4.34915 34.4247 4.34711 34.416 4.34502C34.3986 4.34084 34.3792 4.33644 34.3576 4.33194C34.3145 4.32293 34.2632 4.31356 34.2035 4.30484C34.084 4.28738 33.9318 4.27265 33.7467 4.26854C33.3756 4.26029 32.8778 4.29479 32.2496 4.43135C30.9943 4.70425 29.2324 5.38139 26.9206 6.92257L28.446 9.21071C30.5343 7.81855 31.9807 7.30403 32.8338 7.11859C33.2597 7.02598 33.541 7.01465 33.6856 7.01786C33.7583 7.01948 33.7981 7.0248 33.806 7.02596C33.8101 7.02655 33.8063 7.02613 33.7949 7.02375C33.7892 7.02256 33.7817 7.02089 33.7722 7.01861C33.7675 7.01747 33.7623 7.01618 33.7566 7.01472C33.7538 7.014 33.7508 7.01323 33.7478 7.01242C33.7462 7.01201 33.7447 7.0116 33.7431 7.01117C33.7423 7.01096 33.7411 7.01063 33.7407 7.01052C33.7394 7.01019 33.7382 7.00985 34.1 5.6833ZM28.0299 6.73602C24.0759 5.70625 19.9241 5.70625 15.9701 6.73602L16.6632 9.39725C20.1627 8.48584 23.8373 8.48584 27.3368 9.39725L28.0299 6.73602ZM17.0794 6.92257C14.7676 5.38139 13.0057 4.70425 11.7504 4.43135C11.1222 4.29479 10.6244 4.26029 10.2533 4.26854C10.0682 4.27265 9.91602 4.28738 9.79651 4.30484C9.73682 4.31356 9.68546 4.32293 9.64237 4.33194C9.62084 4.33644 9.60139 4.34084 9.58403 4.34502C9.57535 4.34711 9.56719 4.34915 9.55955 4.35111C9.55574 4.35209 9.55205 4.35305 9.54849 4.35399C9.54671 4.35446 9.54497 4.35493 9.54325 4.35539C9.5424 4.35562 9.54114 4.35596 9.54071 4.35608C9.53946 4.35642 9.53821 4.35675 9.9 5.6833C10.2618 7.00985 10.2606 7.01019 10.2593 7.01052C10.2589 7.01063 10.2577 7.01096 10.2569 7.01117C10.2553 7.0116 10.2538 7.01201 10.2522 7.01242C10.2492 7.01323 10.2462 7.014 10.2434 7.01472C10.2377 7.01618 10.2325 7.01747 10.2278 7.01861C10.2183 7.02089 10.2108 7.02256 10.2051 7.02375C10.1937 7.02613 10.1899 7.02655 10.194 7.02596C10.2019 7.0248 10.2417 7.01948 10.3144 7.01786C10.459 7.01465 10.7403 7.02598 11.1662 7.11859C12.0193 7.30403 13.4657 7.81855 15.554 9.21071L17.0794 6.92257ZM8.64578 5.11979C7.66369 7.30563 7.58602 9.79118 8.42971 12.0341L11.0036 11.0659C10.4156 9.50264 10.4697 7.77028 11.1542 6.24682L8.64578 5.11979ZM8.73025 10.592C6.95506 12.42 5.96093 14.8671 5.95833 17.4152L8.70833 17.418C8.7102 15.5844 9.4256 13.8234 10.7031 12.5079L8.73025 10.592ZM5.95833 17.4166C5.95833 21.9175 7.29203 24.9573 9.54995 26.9124C11.7489 28.8164 14.612 29.499 17.2702 29.7838L17.5631 27.0495C15.088 26.7843 12.9094 26.1836 11.35 24.8334C9.84964 23.5343 8.70833 21.3491 8.70833 17.4166H5.95833ZM16.4444 27.4444C15.7111 28.1777 15.2962 28.972 15.1268 29.8528C14.9681 30.678 15.0422 31.5064 15.1356 32.2539L17.8644 31.9128C17.7745 31.1935 17.7569 30.7386 17.8273 30.3721C17.8871 30.0613 18.0223 29.7556 18.3889 29.3889L16.4444 27.4444ZM15.125 32.0833V38.5H17.875V32.0833H15.125Z" fill="#0E0B3C"/>
</svg>
