<?xml version="1.0" encoding="UTF-8"?>
<svg width="60px" height="60px" viewBox="0 0 60 60" version="1.1" xmlns="http://www.w3.org/2000/svg" xmlns:xlink="http://www.w3.org/1999/xlink">
    <!-- Generator: Sketch 54.1 (76490) - https://sketchapp.com -->
    <title>happy</title>
    <desc>Created with Sketch.</desc>
    <g id="Page-1" stroke="none" stroke-width="1" fill="none" fill-rule="evenodd">
        <g id="Day-1160-Feedback-UI-Design" transform="translate(-1098.000000, -341.000000)" fill-rule="nonzero">
            <g id="Rectangle" transform="translate(838.000000, 228.000000)">
                <g id="Group-2" transform="translate(245.000000, 98.000000)">
                    <g id="happy" transform="translate(15.000000, 15.000000)">
                        <circle id="Oval" fill="#FFE17D" cx="30" cy="30" r="30"></circle>
                        <path d="M34.3548047,55.6451953 C17.78625,55.6451953 4.35480469,42.21375 4.35480469,25.6451953 C4.35480469,18.4701562 6.87679688,11.8860937 11.0785547,6.72375 C4.31988281,12.2245312 0,20.6064844 0,30 C0,46.5685547 13.4314453,60 30,60 C39.3936328,60 47.7755859,55.68 53.2764844,48.9213281 C48.1140234,53.1230859 41.5299609,55.6451953 34.3548047,55.6451953 Z" id="Path" fill="#FFD164"></path>
                        <path d="M30,35.7779297 C24.2199609,35.7779297 18.7025391,35.1067969 13.6408594,33.8936719 C12.9851953,33.7365234 12.4201172,34.4214844 12.6223828,35.1353906 C14.9567578,43.3764844 21.8471484,49.3549219 30.0001172,49.3549219 C38.1530859,49.3549219 45.0433594,43.3764844 47.3778516,35.1353906 C47.5801172,34.4214844 47.0150391,33.7365234 46.359375,33.8936719 C41.2974609,35.1067969 35.7800391,35.7779297 30,35.7779297 Z" id="Path" fill="#9C6846"></path>
                        <g id="Group" transform="translate(12.539062, 18.281250)" fill="#7D5046">
                            <path d="M33.8201953,15.6124219 C28.7583984,16.8255469 23.2410938,17.4966797 17.4609375,17.4966797 C11.6807813,17.4966797 6.16347656,16.8256641 1.10179687,15.6124219 C0.446132812,15.4552734 -0.118945313,16.1402344 0.0833203125,16.8541406 C0.694335937,19.0113281 1.62410156,21.0076172 2.80042969,22.7881641 C7.60980469,23.7017578 12.5026172,24.204375 17.4630469,24.204375 C22.4218359,24.204375 27.3127734,23.7021094 32.1207422,22.7892187 C33.2974219,21.0084375 34.2275391,19.0119141 34.8386719,16.8542578 C35.0408203,16.1401172 34.4758594,15.4552734 33.8201953,15.6124219 Z" id="Path"></path>
                            <path d="M7.29960937,8.86429687 L7.29960937,8.86429687 C5.9634375,8.86429687 4.88027344,7.78113281 4.88027344,6.44496094 L4.88027344,2.52515625 C4.88027344,1.18898438 5.9634375,0.105820312 7.29960937,0.105820312 L7.29960937,0.105820312 C8.63578125,0.105820312 9.71894531,1.18898437 9.71894531,2.52515625 L9.71894531,6.44496094 C9.71894531,7.78113281 8.63578125,8.86429687 7.29960937,8.86429687 Z" id="Path"></path>
                        </g>
                        <path d="M19.8386719,18.3870703 C19.6729687,18.3870703 19.51125,18.4040625 19.3548047,18.4358203 L19.3548047,23.7583594 C19.3548047,24.5600391 20.0047266,25.2099609 20.8064062,25.2099609 C21.6080859,25.2099609 22.2580078,24.5600391 22.2580078,23.7583594 L22.2580078,20.8062891 C22.2580078,19.4702344 21.1749609,18.3870703 19.8386719,18.3870703 Z" id="Path" fill="#9C6846"></path>
                        <path d="M40.1613281,27.1455469 L40.1613281,27.1455469 C38.8251562,27.1455469 37.7419922,26.0623828 37.7419922,24.7262109 L37.7419922,20.8064063 C37.7419922,19.4702344 38.8251562,18.3870703 40.1613281,18.3870703 L40.1613281,18.3870703 C41.4975,18.3870703 42.5806641,19.4702344 42.5806641,20.8064063 L42.5806641,24.7262109 C42.5806641,26.0623828 41.4975,27.1455469 40.1613281,27.1455469 Z" id="Path" fill="#7D5046"></path>
                        <path d="M40.1613281,18.3870703 C39.995625,18.3870703 39.8339062,18.4040625 39.6774609,18.4358203 L39.6774609,23.7583594 C39.6774609,24.5600391 40.3273828,25.2099609 41.1290625,25.2099609 C41.9307422,25.2099609 42.5806641,24.5600391 42.5806641,23.7583594 L42.5806641,20.8062891 C42.5806641,19.4702344 41.4975,18.3870703 40.1613281,18.3870703 Z" id="Path" fill="#9C6846"></path>
                        <path d="M43.0134375,37.1985938 C43.5365625,36.3022266 43.9742578,35.3417578 44.3412891,34.3419141 C39.8431641,35.2701562 35.0211328,35.7778125 30,35.7778125 C24.9758203,35.7778125 20.1510938,35.2696875 15.650625,34.3402734 C16.0195312,35.3449219 16.464375,36.3071484 16.9910156,37.2072656 C17.5998047,38.2478906 18.6304687,38.9135156 19.7517187,39.0499219 C23.1090234,39.4583203 26.5306641,39.6773437 30,39.6773437 C33.4686328,39.6773437 36.8894531,39.4584375 40.2460547,39.0501563 C41.3710547,38.9133984 42.4037109,38.2434375 43.0134375,37.1985938 Z" id="Path" fill="#FFFFFF"></path>
                    </g>
                </g>
            </g>
        </g>
    </g>
</svg>