<?xml version="1.0" encoding="UTF-8"?>
<svg width="12px" height="12px" viewBox="0 0 12 12" version="1.1" xmlns="http://www.w3.org/2000/svg" xmlns:xlink="http://www.w3.org/1999/xlink">
    <!-- Generator: Sketch 54.1 (76490) - https://sketchapp.com -->
    <title>Path</title>
    <desc>Created with Sketch.</desc>
    <g id="Page-1" stroke="none" stroke-width="1" fill="none" fill-rule="evenodd">
        <g id="Day-1160-Feedback-UI-Design" transform="translate(-730.000000, -216.000000)" fill="#A2A8BB">
            <g id="Group-6" transform="translate(236.000000, 196.000000)">
                <g id="Rectangle">
                    <path d="M501.061266,26.0001251 L505.780117,21.2810774 C506.073294,20.9881382 506.073294,20.5128312 505.780117,20.219892 C505.48694,19.9267027 505.012153,19.9267027 504.718976,20.219892 L500.000125,24.9389397 L495.281024,20.219892 C494.987847,19.9267027 494.51306,19.9267027 494.219883,20.219892 C493.926706,20.5128312 493.926706,20.9881382 494.219883,21.2810774 L498.938984,26.0001251 L494.219883,30.7191728 C493.926706,31.012112 493.926706,31.487419 494.219883,31.7803581 C494.366471,31.9267027 494.558587,32 494.750453,32 C494.942319,32 495.134435,31.9267027 495.281024,31.780108 L500.000125,27.0610603 L504.718976,31.780108 C504.865565,31.9267027 505.057681,32 505.249547,32 C505.441413,32 505.633529,31.9267027 505.780117,31.780108 C506.073294,31.4871688 506.073294,31.0118618 505.780117,30.7189226 L501.061266,26.0001251 Z" id="Path"></path>
                </g>
            </g>
        </g>
    </g>
</svg>