<?xml version="1.0" encoding="UTF-8"?>
<svg width="60px" height="60px" viewBox="0 0 60 60" version="1.1" xmlns="http://www.w3.org/2000/svg" xmlns:xlink="http://www.w3.org/1999/xlink">
    <!-- Generator: Sketch 54.1 (76490) - https://sketchapp.com -->
    <title>thinking</title>
    <desc>Created with Sketch.</desc>
    <g id="Page-1" stroke="none" stroke-width="1" fill="none" fill-rule="evenodd">
        <g id="Day-1160-Feedback-UI-Design" transform="translate(-998.000000, -341.000000)" fill-rule="nonzero">
            <g id="Rectangle" transform="translate(838.000000, 228.000000)">
                <g id="thinking" transform="translate(160.000000, 113.000000)">
                    <circle id="Oval" fill="#FFE17D" cx="30" cy="30" r="30"></circle>
                    <path d="M19.4193359,29.7741406 L19.4193359,29.7741406 C18.0831641,29.7741406 17,28.6909766 17,27.3548047 L17,25.4193359 C17,24.0831641 18.0831641,23 19.4193359,23 L19.4193359,23 C20.7555078,23 21.8386719,24.0831641 21.8386719,25.4193359 L21.8386719,27.3548047 C21.8386719,28.6909766 20.7555078,29.7741406 19.4193359,29.7741406 Z" id="Path" fill="#7D5046"></path>
                    <path d="M19.4193359,23 C19.2536328,23 19.0919141,23.0169922 18.9354687,23.04875 L18.9354687,26.3870703 C18.9354687,27.18875 19.5853906,27.8386719 20.3870703,27.8386719 C21.18875,27.8386719 21.8386719,27.18875 21.8386719,26.3870703 L21.8386719,25.4193359 C21.8386719,24.0830469 20.755625,23 19.4193359,23 Z" id="Path" fill="#9C6846"></path>
                    <path d="M39.7419922,29.7741406 L39.7419922,29.7741406 C38.4058203,29.7741406 37.3226562,28.6909766 37.3226562,27.3548047 L37.3226562,25.4193359 C37.3226562,24.0831641 38.4058203,23 39.7419922,23 L39.7419922,23 C41.0781641,23 42.1613281,24.0831641 42.1613281,25.4193359 L42.1613281,27.3548047 C42.1613281,28.6909766 41.0781641,29.7741406 39.7419922,29.7741406 Z" id="Path" fill="#7D5046"></path>
                    <path d="M39.7419922,23 C39.5762891,23 39.4145703,23.0169922 39.258125,23.04875 L39.258125,26.3870703 C39.258125,27.18875 39.9080469,27.8386719 40.7097266,27.8386719 C41.5114062,27.8386719 42.1613281,27.18875 42.1613281,26.3870703 L42.1613281,25.4193359 C42.1613281,24.0830469 41.0781641,23 39.7419922,23 Z" id="Path" fill="#9C6846"></path>
                    <path d="M34.3548047,55.6451953 C17.78625,55.6451953 4.35480469,42.21375 4.35480469,25.6451953 C4.35480469,18.4701562 6.87679688,11.8860937 11.0785547,6.72375 C4.31988281,12.2245312 0,20.6064844 0,30 C0,46.5685547 13.4314453,60 30,60 C39.3936328,60 47.7755859,55.68 53.2764844,48.9213281 C48.1140234,53.1230859 41.5299609,55.6451953 34.3548047,55.6451953 Z" id="Path" fill="#FFD164"></path>
                    <path d="M33.9194531,43.4194531 L25.2097266,43.4194531 C24.5415234,43.4194531 24,42.8779297 24,42.2097266 C24,41.5415234 24.5415234,41 25.2097266,41 L33.9194531,41 C34.5876563,41 35.1291797,41.5415234 35.1291797,42.2097266 C35.1291797,42.8779297 34.5876563,43.4194531 33.9194531,43.4194531 Z" id="Path" fill="#AA7346"></path>
                </g>
            </g>
        </g>
    </g>
</svg>